HIERARCHY
ROOT Hips
{
	OFFSET 0.000000 0.000000 0.000000
	CHANNELS 6 Xposition Yposition Zposition Xrotation Yrotation Zrotation
	JOINT LeftUpLeg_virtual
	{
		OFFSET 0.000000 0.000000 0.000000
		CHANNELS 3 Xrotation Yrotation Zrotation
		JOINT LeftUpLeg
		{
			OFFSET 15.427100 -6.655098 0.678600
			CHANNELS 3 Xrotation Yrotation Zrotation
			JOINT LeftLeg
			{
				OFFSET 4.081073 -39.591068 13.024000
				CHANNELS 3 Xrotation Yrotation Zrotation
				JOINT LeftFoot
				{
					OFFSET -4.081074 -37.707932 -15.979700
					CHANNELS 3 Xrotation Yrotation Zrotation
					JOINT LeftToeBase
					{
						OFFSET 5.346399 -15.068900 20.645000
						CHANNELS 3 Xrotation Yrotation Zrotation
						JOINT LeftToe_End
						{
							OFFSET 2.754700 0.931300 11.300900
							CHANNELS 3 Xrotation Yrotation Zrotation
							End Site
							{
								OFFSET 0 0 0
							}
						}
					}
				}
			}
		}
	}
	JOINT RightUpLeg_virtual
	{
		OFFSET 0.000000 0.000000 0.000000
		CHANNELS 3 Xrotation Yrotation Zrotation
		JOINT RightUpLeg
		{
			OFFSET -15.569500 -6.655098 0.678600
			CHANNELS 3 Xrotation Yrotation Zrotation
			JOINT RightLeg
			{
				OFFSET -4.081825 -39.591045 13.023800
				CHANNELS 3 Xrotation Yrotation Zrotation
				JOINT RightFoot
				{
					OFFSET 4.081824 -37.707954 -15.979600
					CHANNELS 3 Xrotation Yrotation Zrotation
					JOINT RightToeBase
					{
						OFFSET -5.346400 -15.068900 20.645000
						CHANNELS 3 Xrotation Yrotation Zrotation
						JOINT RightToe_End
						{
							OFFSET -2.754700 0.931300 11.300900
							CHANNELS 3 Xrotation Yrotation Zrotation
							End Site
							{
								OFFSET 0 0 0
							}
						}
					}
				}
			}
		}
	}
	JOINT Spine_virtual
	{
		OFFSET 0.000000 0.000000 0.000000
		CHANNELS 3 Xrotation Yrotation Zrotation
		JOINT Spine
		{
			OFFSET -0.279200 12.230698 -2.892100
			CHANNELS 3 Xrotation Yrotation Zrotation
			JOINT Spine1
			{
				OFFSET -0.232667 10.192268 -1.242267
				CHANNELS 3 Xrotation Yrotation Zrotation
				JOINT Spine1_split
				{
					OFFSET -0.232667 10.192268 -1.242267
					CHANNELS 3 Xrotation Yrotation Zrotation
					JOINT Spine2
					{
						OFFSET -0.232667 10.192268 -1.242267
						CHANNELS 3 Xrotation Yrotation Zrotation
						JOINT Neck_virtual
						{
							OFFSET 0.000000 0.000000 0.000000
							CHANNELS 3 Xrotation Yrotation Zrotation
							JOINT Neck
							{
								OFFSET -0.418800 17.814194 8.416900
								CHANNELS 3 Xrotation Yrotation Zrotation
								JOINT Head
								{
									OFFSET 0.000000 7.031097 3.806800
									CHANNELS 3 Xrotation Yrotation Zrotation
									JOINT HeadTop_End
									{
										OFFSET 0.000000 24.646606 12.978600
										CHANNELS 3 Xrotation Yrotation Zrotation
										End Site
										{
											OFFSET 0 0 0
										}
									}
								}
							}
						}
						JOINT LeftShoulder_virtual
						{
							OFFSET 0.000000 0.000000 0.000000
							CHANNELS 3 Xrotation Yrotation Zrotation
							JOINT LeftShoulder
							{
								OFFSET 8.476499 7.247704 -3.868750
								CHANNELS 3 Xrotation Yrotation Zrotation
								JOINT LeftShoulder_split
								{
									OFFSET 8.476499 7.247704 -3.868750
									CHANNELS 3 Xrotation Yrotation Zrotation
									JOINT LeftArm
									{
										OFFSET 9.308998 -2.777710 0.208600
										CHANNELS 3 Xrotation Yrotation Zrotation
										JOINT LeftForeArm
										{
											OFFSET 29.972298 0.000000 0.000000
											CHANNELS 3 Xrotation Yrotation Zrotation
											JOINT LeftHand
											{
												OFFSET 26.026505 0.000000 0.000000
												CHANNELS 3 Xrotation Yrotation Zrotation
												End Site
												{
													OFFSET 0 0 0
												}
											}
										}
									}
								}
							}
						}
						JOINT RightShoulder_virtual
						{
							OFFSET 0.000000 0.000000 0.000000
							CHANNELS 3 Xrotation Yrotation Zrotation
							JOINT RightShoulder
							{
								OFFSET -7.570500 7.247704 -3.868750
								CHANNELS 3 Xrotation Yrotation Zrotation
								JOINT RightShoulder_split
								{
									OFFSET -7.570500 7.247704 -3.868750
									CHANNELS 3 Xrotation Yrotation Zrotation
									JOINT RightArm
									{
										OFFSET -9.308998 -2.777710 0.208500
										CHANNELS 3 Xrotation Yrotation Zrotation
										JOINT RightForeArm
										{
											OFFSET -29.972300 0.000000 0.000000
											CHANNELS 3 Xrotation Yrotation Zrotation
											JOINT RightHand
											{
												OFFSET -26.026505 0.000000 0.000000
												CHANNELS 3 Xrotation Yrotation Zrotation
												End Site
												{
													OFFSET 0 0 0
												}
											}
										}
									}
								}
							}
						}
					}
				}
			}
		}
	}
}
MOTION
Frames: 8
Frame Time: 0.03333333
-3.510946 88.605499 -8.890961 0.000000 0.000000 0.000000 -4.077827 -7.773109 2.928542 -15.910432 7.115546 4.849821 27.507748 8.776462 -2.092600 -7.375298 0.849564 -3.409147 1.473758 0.129900 0.395748 0.000000 0.000000 0.000000 -3.544721 -5.663154 3.047129 -3.223438 -15.472282 -14.333741 23.201176 -1.050552 -6.161236 -14.742193 -2.129508 13.220583 -4.266225 -0.611089 0.520532 0.000000 0.000000 0.000000 -4.952500 -4.166070 1.191155 8.686542 3.495795 -4.345774 1.897335 0.494096 -1.102057 0.713044 0.816510 0.119738 0.000000 0.000000 0.000000 1.195811 0.059875 -0.152163 -4.537229 -1.126433 1.556899 8.283149 3.755551 -4.354150 0.000000 0.000000 0.000000 0.681002 0.391367 -0.864155 0.392866 3.087673 0.248201 -2.777678 -2.762844 0.302457 -12.917925 -5.002378 -65.257649 -1.846655 -34.614142 0.853386 0.000000 0.000000 0.000000 2.464866 0.208204 -0.587665 4.606951 12.139181 -5.707393 -1.158573 0.574994 -1.705892 -1.006370 2.335373 76.336947 -0.629150 36.623331 -0.040980 0.000000 0.000000 0.000000 
-3.714746 88.596069 -9.192177 0.000000 0.000000 0.000000 -3.863861 -7.545616 3.017938 -16.004165 7.055647 4.808628 27.615679 8.764169 -2.027121 -7.166830 0.985889 -3.580369 1.556008 0.121004 0.446287 0.000000 0.000000 0.000000 -3.409954 -5.703445 3.093560 -3.477410 -15.517396 -14.304950 23.067434 -1.277232 -6.244007 -15.083826 -2.132184 13.188119 -3.852561 -0.534770 0.385710 0.000000 0.000000 0.000000 -4.613809 -4.370196 1.390468 8.744716 3.385947 -4.515152 1.880406 0.431250 -1.127038 0.718363 1.021549 -0.052033 0.000000 0.000000 0.000000 1.252391 0.027490 -0.176632 -4.554086 -0.962499 1.683271 8.067567 3.934819 -4.673035 0.000000 0.000000 0.000000 0.772862 0.335521 -0.864051 0.420779 2.965637 0.242584 -2.676049 -3.044438 0.366538 -13.341431 -4.964262 -65.215350 -2.025426 -35.268822 0.630897 0.000000 0.000000 0.000000 2.492384 0.146412 -0.600944 4.590340 12.312653 -5.606565 -1.225467 0.203692 -1.725815 -0.660438 2.170785 76.295809 -0.708814 36.744587 0.090056 0.000000 0.000000 0.000000 
-3.957048 88.614136 -9.572643 0.000000 0.000000 0.000000 -3.552268 -7.333714 2.893994 -16.427247 7.048768 5.069366 27.520574 8.752593 -2.039407 -6.858354 1.364510 -3.838266 1.749091 0.123819 0.376216 0.000000 0.000000 0.000000 -3.186738 -5.955844 2.926574 -3.968634 -15.439825 -14.164216 23.091176 -1.347085 -6.161238 -15.281959 -2.094509 13.614543 -3.729405 -0.483329 0.252482 0.000000 0.000000 0.000000 -4.059858 -4.903278 1.493677 8.985496 3.283950 -4.641983 1.874226 0.404152 -1.179079 0.783035 1.294205 -0.110113 0.000000 0.000000 0.000000 1.333808 0.045355 -0.255922 -4.616944 -0.678328 1.792895 7.357727 4.289355 -4.972355 0.000000 0.000000 0.000000 0.894979 0.342529 -0.872756 0.430994 2.763269 0.321058 -2.434226 -3.128597 0.397319 -13.857661 -5.113040 -65.104311 -1.834619 -35.821187 0.640187 0.000000 0.000000 0.000000 2.535172 0.125057 -0.625314 4.522061 12.400800 -5.586878 -1.233750 0.022107 -1.770443 -0.108859 1.763143 76.268098 -0.802786 37.070295 0.202147 0.000000 0.000000 0.000000 
-4.167507 88.629295 -9.950378 0.000000 0.000000 0.000000 -3.166119 -7.230207 2.570195 -17.124474 7.180434 5.617343 27.223129 8.870126 -2.179894 -6.519542 2.046027 -3.996527 2.013466 0.136899 0.164592 0.000000 0.000000 0.000000 -2.883096 -6.408794 2.556213 -4.656574 -15.256115 -13.882776 23.328200 -1.275648 -5.961246 -15.505718 -2.013846 14.230339 -3.605937 -0.458585 0.190263 0.000000 0.000000 0.000000 -3.423910 -5.715592 1.470325 9.380134 3.192833 -4.711004 1.899039 0.423145 -1.227878 0.874997 1.547539 -0.113210 0.000000 0.000000 0.000000 1.472291 0.123732 -0.358700 -4.728749 -0.332942 1.830440 6.169838 4.703863 -5.180760 0.000000 0.000000 0.000000 1.065525 0.416134 -0.863509 0.426325 2.505400 0.480795 -2.228803 -2.951481 0.346440 -14.536116 -5.436800 -65.090439 -1.315137 -35.876839 0.885992 0.000000 0.000000 0.000000 2.615530 0.152938 -0.638944 4.411347 12.416767 -5.730023 -1.265030 0.050484 -1.825395 0.522337 1.266127 76.314093 -0.856114 37.460545 0.245093 0.000000 0.000000 0.000000 
-4.348638 88.615051 -10.303749 0.000000 0.000000 0.000000 -2.684912 -7.393619 2.113898 -18.013774 7.425724 6.400074 26.897854 9.167470 -2.491537 -6.261782 3.044093 -4.014002 2.314221 0.158609 -0.133619 0.000000 0.000000 0.000000 -2.471516 -7.166716 2.054131 -5.626525 -14.942564 -13.575553 23.873232 -1.118836 -5.660573 -15.873691 -1.857007 14.722140 -2.936582 -0.446171 0.251757 0.000000 0.000000 0.000000 -2.810305 -6.724971 1.328902 9.922520 3.119667 -4.713124 1.965129 0.488662 -1.248307 0.898919 1.619511 -0.014139 0.000000 0.000000 0.000000 1.669581 0.267309 -0.447696 -4.916334 0.023602 1.755074 4.537130 5.060471 -5.260003 0.000000 0.000000 0.000000 1.278812 0.548309 -0.814160 0.408685 2.189286 0.633972 -2.166825 -2.738307 0.335609 -15.441408 -5.844078 -65.148332 -0.621926 -35.279122 1.285045 0.000000 0.000000 0.000000 2.733291 0.232779 -0.622362 4.278533 12.379113 -6.146244 -1.277665 0.223986 -1.748792 1.142559 0.870219 76.367362 -0.813032 37.751330 0.170175 0.000000 0.000000 0.000000 
-4.497384 88.539734 -10.730278 0.000000 0.000000 0.000000 -2.107340 -7.954634 1.625762 -19.024129 7.689466 7.292526 26.780598 9.593846 -2.954989 -6.116129 4.274406 -3.922140 2.592893 0.181905 -0.419292 0.000000 0.000000 0.000000 -1.919644 -8.297662 1.542307 -7.072748 -14.527990 -13.426058 24.818532 -0.838668 -5.243879 -16.162565 -1.557590 15.126128 -1.853191 -0.426917 0.406798 0.000000 0.000000 0.000000 -2.299279 -7.895816 1.078869 10.574553 3.056226 -4.653305 2.070561 0.601167 -1.232081 0.749534 1.567678 0.159696 0.000000 0.000000 0.000000 1.917341 0.452788 -0.498760 -5.206876 0.339761 1.555209 2.538937 5.237494 -5.168574 0.000000 0.000000 0.000000 1.541168 0.721114 -0.726013 0.390095 1.847812 0.745732 -2.164215 -2.595196 0.392432 -16.465050 -6.207984 -65.138189 0.006066 -34.039545 1.654691 0.000000 0.000000 0.000000 2.891023 0.347057 -0.573906 4.146263 12.297507 -6.862740 -1.287284 0.520678 -1.522198 1.802328 0.743788 76.403418 -0.627057 37.863154 -0.043680 0.000000 0.000000 0.000000 
-4.637555 88.400764 -11.316948 0.000000 0.000000 0.000000 -1.488772 -9.044064 1.214630 -20.058456 7.740775 8.161175 26.961683 9.971020 -3.484275 -6.028507 5.642640 -3.798349 2.757574 0.213047 -0.594687 0.000000 0.000000 0.000000 -1.233156 -9.674722 1.137663 -9.144365 -13.946351 -13.547021 26.062443 -0.205771 -4.755765 -16.050784 -1.026788 15.958192 -1.132248 -0.393461 0.522848 0.000000 0.000000 0.000000 -1.771630 -9.039703 0.778226 11.328687 2.982665 -4.551564 2.212047 0.745141 -1.199132 0.615601 1.276334 0.304099 0.000000 0.000000 0.000000 2.190934 0.661588 -0.508835 -5.616266 0.577869 1.285466 0.348903 5.243152 -4.949967 0.000000 0.000000 0.000000 1.846268 0.899242 -0.613088 0.382533 1.569230 0.782846 -2.112855 -2.693735 0.597573 -17.321319 -6.440103 -64.825824 0.331950 -32.268262 1.796627 0.000000 0.000000 0.000000 3.084311 0.486796 -0.514775 4.074674 12.226380 -7.805624 -1.240282 0.913336 -1.160016 2.591095 0.797176 76.265114 -0.325882 37.824245 -0.312983 0.000000 0.000000 0.000000 
-4.765289 88.193863 -12.112316 0.000000 0.000000 0.000000 -0.844845 -10.564265 0.968870 -21.093502 7.416034 8.849776 27.390927 10.188290 -3.990438 -5.898622 7.089041 -3.739189 2.858305 0.245890 -0.669990 0.000000 0.000000 0.000000 -0.426801 -11.175621 0.937443 -11.713716 -13.181059 -13.871986 27.463291 0.862080 -4.261872 -15.528071 -0.289980 17.342298 -1.018495 -0.329050 0.518331 0.000000 0.000000 0.000000 -1.168277 -10.087114 0.507915 12.202580 2.859505 -4.411203 2.363775 0.905707 -1.173843 0.585759 0.888526 0.292262 0.000000 0.000000 0.000000 2.460371 0.867510 -0.487625 -6.127879 0.688859 1.041716 -1.827883 5.053196 -4.667674 0.000000 0.000000 0.000000 2.140884 1.070822 -0.498279 0.380975 1.436487 0.756546 -1.960063 -3.045545 0.939748 -17.582200 -6.503787 -63.922525 0.226353 -30.337306 1.589353 0.000000 0.000000 0.000000 3.301806 0.627571 -0.467026 4.080577 12.211619 -8.866917 -0.995780 1.260402 -0.760447 3.532644 0.655713 75.862201 0.021134 37.752177 -0.562010 0.000000 0.000000 0.000000 
